<svg width="26" height="26" viewBox="0 0 26 26" fill="none" xmlns="http://www.w3.org/2000/svg">
<path d="M19.0234 18.8643V17.4428C19.0234 16.6888 18.7239 15.9656 18.1907 15.4324C17.6575 14.8993 16.9344 14.5997 16.1804 14.5997H10.4943C9.74026 14.5997 9.01713 14.8993 8.48395 15.4324C7.95078 15.9656 7.65125 16.6888 7.65125 17.4428V18.8643" stroke="white" stroke-width="2" stroke-linecap="round" stroke-linejoin="round"/>
<path d="M13.3373 11.7566C14.9075 11.7566 16.1803 10.4838 16.1803 8.9136C16.1803 7.34343 14.9075 6.07056 13.3373 6.07056C11.7671 6.07056 10.4943 7.34343 10.4943 8.9136C10.4943 10.4838 11.7671 11.7566 13.3373 11.7566Z" stroke="white" stroke-width="2" stroke-linecap="round" stroke-linejoin="round"/>
<circle cx="13.3374" cy="12.9845" r="11.6626" stroke="white" stroke-width="2"/>
</svg>
